<?xml version="1.0" encoding="UTF-8"?>
<svg width="700pt" height="700pt" version="1.1" viewBox="0 0 700 700" xmlns="http://www.w3.org/2000/svg">
 <path d="m618.33 280c0 148.12-120.21 268.33-268.33 268.33s-268.33-120.21-268.33-268.33 120.21-268.33 268.33-268.33 268.33 120.21 268.33 268.33zm-46.664 0c0-122.35-99.316-221.67-221.67-221.67s-221.67 99.316-221.67 221.67 99.316 221.67 221.67 221.67 221.67-99.316 221.67-221.67zm-293.99 161.01 2.3164-251.72-63.57-0.86719 99.168-100.05 96.25 100.62-54.551-0.27344-0.59375 87.77c7.4062-8.5469 23.332-14.082 47.852-16.613 11.668-1.1602 23.332-1.5469 35-1.1602l6.6992-45.207 81.668 92.738-83.988 84.582-4.375-48.125c-25.293-1.3672-46.574 5.6289-63.895 21.008-8.0664 7.3398-14.355 14.789-18.797 22.309-0.25391 0.43359-0.48047 0.86719-0.73047 1.3008l-0.29688 53.387z" fill-rule="evenodd"/>
</svg>
